%TF.GenerationSoftware,KiCad,Pcbnew,10.0.1*%
%TF.CreationDate,2026-04-22T16:34:44-03:00*%
%TF.ProjectId,STM32_Controller_v3,53544d33-325f-4436-9f6e-74726f6c6c65,B*%
%TF.SameCoordinates,PX2ebae40PY8f0d180*%
%TF.FileFunction,Soldermask,Bot*%
%TF.FilePolarity,Negative*%
%FSLAX46Y46*%
G04 Gerber Fmt 4.6, Leading zero omitted, Abs format (unit mm)*
G04 Created by KiCad (PCBNEW 10.0.1) date 2026-04-22 16:34:44*
%MOMM*%
%LPD*%
G01*
G04 APERTURE LIST*
G04 Aperture macros list*
%AMRoundRect*
0 Rectangle with rounded corners*
0 $1 Rounding radius*
0 $2 $3 $4 $5 $6 $7 $8 $9 X,Y pos of 4 corners*
0 Add a 4 corners polygon primitive as box body*
4,1,4,$2,$3,$4,$5,$6,$7,$8,$9,$2,$3,0*
0 Add four circle primitives for the rounded corners*
1,1,$1+$1,$2,$3*
1,1,$1+$1,$4,$5*
1,1,$1+$1,$6,$7*
1,1,$1+$1,$8,$9*
0 Add four rect primitives between the rounded corners*
20,1,$1+$1,$2,$3,$4,$5,0*
20,1,$1+$1,$4,$5,$6,$7,0*
20,1,$1+$1,$6,$7,$8,$9,0*
20,1,$1+$1,$8,$9,$2,$3,0*%
G04 Aperture macros list end*
%ADD10O,3.600000X1.800000*%
%ADD11RoundRect,0.250000X1.550000X-0.650000X1.550000X0.650000X-1.550000X0.650000X-1.550000X-0.650000X0*%
%ADD12RoundRect,0.250000X-1.550000X0.650000X-1.550000X-0.650000X1.550000X-0.650000X1.550000X0.650000X0*%
%ADD13C,0.900000*%
%ADD14C,8.000000*%
%ADD15R,1.700000X1.700000*%
%ADD16C,1.700000*%
%ADD17C,3.000000*%
%ADD18R,1.500000X2.600000*%
%ADD19O,1.500000X2.600000*%
G04 APERTURE END LIST*
D10*
%TO.C,CN2*%
X94500000Y29120000D03*
X94500000Y25310000D03*
X94500000Y21500000D03*
X94500000Y17690000D03*
D11*
X94500000Y13880000D03*
%TD*%
D12*
%TO.C,CN3*%
X5500000Y55000000D03*
D10*
X5500000Y51190000D03*
%TD*%
D12*
%TO.C,CN1*%
X5500000Y42870000D03*
D10*
X5500000Y39060000D03*
X5500000Y35250000D03*
X5500000Y31440000D03*
X5500000Y27630000D03*
X5500000Y23820000D03*
X5500000Y20010000D03*
X5500000Y16200000D03*
X5500000Y12390000D03*
%TD*%
D13*
%TO.C,H1*%
X1275000Y75500000D03*
X2219581Y77780419D03*
X2219581Y73219581D03*
X4500000Y78725000D03*
D14*
X4500000Y75500000D03*
D13*
X4500000Y72275000D03*
X6780419Y77780419D03*
X6780419Y73219581D03*
X7725000Y75500000D03*
%TD*%
D15*
%TO.C,CN9*%
X94000000Y36150000D03*
D16*
X94000000Y38690000D03*
X94000000Y41230000D03*
X94000000Y43770000D03*
X94000000Y46310000D03*
X94000000Y48850000D03*
%TD*%
D15*
%TO.C,CN10*%
X94000000Y56670000D03*
D16*
X94000000Y59210000D03*
X94000000Y61750000D03*
X94000000Y64290000D03*
X94000000Y66830000D03*
%TD*%
D13*
%TO.C,H4*%
X92275000Y75500000D03*
X93219581Y77780419D03*
X93219581Y73219581D03*
X95500000Y78725000D03*
D14*
X95500000Y75500000D03*
D13*
X95500000Y72275000D03*
X97780419Y77780419D03*
X97780419Y73219581D03*
X98725000Y75500000D03*
%TD*%
%TO.C,H2*%
X1275000Y4500000D03*
X2219581Y6780419D03*
X2219581Y2219581D03*
X4500000Y7725000D03*
D14*
X4500000Y4500000D03*
D13*
X4500000Y1275000D03*
X6780419Y6780419D03*
X6780419Y2219581D03*
X7725000Y4500000D03*
%TD*%
%TO.C,H3*%
X92275000Y4500000D03*
X93219581Y6780419D03*
X93219581Y2219581D03*
X95500000Y7725000D03*
D14*
X95500000Y4500000D03*
D13*
X95500000Y1275000D03*
X97780419Y6780419D03*
X97780419Y2219581D03*
X98725000Y4500000D03*
%TD*%
D15*
%TO.C,CN8*%
X49412500Y15810000D03*
D16*
X49412500Y13270000D03*
X49412500Y10730000D03*
X49412500Y8190000D03*
%TD*%
D17*
%TO.C,DS1*%
X87499100Y44356800D03*
X87499100Y75357500D03*
X12500520Y44356800D03*
X12500000Y75357500D03*
D18*
X82000000Y75357500D03*
D19*
X79460000Y75357500D03*
X76920000Y75357500D03*
X74380000Y75357500D03*
X71840000Y75357500D03*
X69300000Y75357500D03*
X66760000Y75357500D03*
X64220000Y75357500D03*
X61680000Y75357500D03*
X59140000Y75357500D03*
X56600000Y75357500D03*
X54060000Y75357500D03*
X51520000Y75357500D03*
X48980000Y75357500D03*
X46440000Y75357500D03*
X43900000Y75357500D03*
%TD*%
M02*
