%TF.GenerationSoftware,KiCad,Pcbnew,10.0.1*%
%TF.CreationDate,2026-06-17T11:13:51-03:00*%
%TF.ProjectId,STM32_Controller_v3,53544d33-325f-4436-9f6e-74726f6c6c65,B*%
%TF.SameCoordinates,PX2ebae40PY8f0d180*%
%TF.FileFunction,Soldermask,Top*%
%TF.FilePolarity,Negative*%
%FSLAX46Y46*%
G04 Gerber Fmt 4.6, Leading zero omitted, Abs format (unit mm)*
G04 Created by KiCad (PCBNEW 10.0.1) date 2026-06-17 11:13:51*
%MOMM*%
%LPD*%
G01*
G04 APERTURE LIST*
G04 Aperture macros list*
%AMRoundRect*
0 Rectangle with rounded corners*
0 $1 Rounding radius*
0 $2 $3 $4 $5 $6 $7 $8 $9 X,Y pos of 4 corners*
0 Add a 4 corners polygon primitive as box body*
4,1,4,$2,$3,$4,$5,$6,$7,$8,$9,$2,$3,0*
0 Add four circle primitives for the rounded corners*
1,1,$1+$1,$2,$3*
1,1,$1+$1,$4,$5*
1,1,$1+$1,$6,$7*
1,1,$1+$1,$8,$9*
0 Add four rect primitives between the rounded corners*
20,1,$1+$1,$2,$3,$4,$5,0*
20,1,$1+$1,$4,$5,$6,$7,0*
20,1,$1+$1,$6,$7,$8,$9,0*
20,1,$1+$1,$8,$9,$2,$3,0*%
G04 Aperture macros list end*
%ADD10RoundRect,0.250000X0.262500X0.450000X-0.262500X0.450000X-0.262500X-0.450000X0.262500X-0.450000X0*%
%ADD11RoundRect,0.250000X0.450000X-0.262500X0.450000X0.262500X-0.450000X0.262500X-0.450000X-0.262500X0*%
%ADD12RoundRect,0.250000X-0.262500X-0.450000X0.262500X-0.450000X0.262500X0.450000X-0.262500X0.450000X0*%
%ADD13RoundRect,0.250000X-0.650000X1.000000X-0.650000X-1.000000X0.650000X-1.000000X0.650000X1.000000X0*%
%ADD14RoundRect,0.250000X-0.450000X0.262500X-0.450000X-0.262500X0.450000X-0.262500X0.450000X0.262500X0*%
%ADD15RoundRect,0.150000X-0.512500X-0.150000X0.512500X-0.150000X0.512500X0.150000X-0.512500X0.150000X0*%
%ADD16RoundRect,0.162500X0.162500X-0.447500X0.162500X0.447500X-0.162500X0.447500X-0.162500X-0.447500X0*%
%ADD17RoundRect,0.250000X-0.475000X0.250000X-0.475000X-0.250000X0.475000X-0.250000X0.475000X0.250000X0*%
%ADD18RoundRect,0.250000X0.475000X-0.250000X0.475000X0.250000X-0.475000X0.250000X-0.475000X-0.250000X0*%
%ADD19RoundRect,0.243750X0.243750X0.456250X-0.243750X0.456250X-0.243750X-0.456250X0.243750X-0.456250X0*%
%ADD20C,0.900000*%
%ADD21C,8.000000*%
%ADD22R,1.700000X1.700000*%
%ADD23C,1.700000*%
%ADD24RoundRect,0.250000X1.000000X-1.500000X1.000000X1.500000X-1.000000X1.500000X-1.000000X-1.500000X0*%
%ADD25C,3.000000*%
%ADD26RoundRect,0.250000X-1.000000X-0.650000X1.000000X-0.650000X1.000000X0.650000X-1.000000X0.650000X0*%
%ADD27RoundRect,0.250000X0.600000X-0.400000X0.600000X0.400000X-0.600000X0.400000X-0.600000X-0.400000X0*%
%ADD28RoundRect,0.250000X-0.250000X-0.475000X0.250000X-0.475000X0.250000X0.475000X-0.250000X0.475000X0*%
%ADD29RoundRect,0.250000X-1.550000X0.650000X-1.550000X-0.650000X1.550000X-0.650000X1.550000X0.650000X0*%
%ADD30O,3.600000X1.800000*%
%ADD31RoundRect,0.243750X-0.243750X-0.456250X0.243750X-0.456250X0.243750X0.456250X-0.243750X0.456250X0*%
%ADD32RoundRect,0.162500X-0.447500X-0.162500X0.447500X-0.162500X0.447500X0.162500X-0.447500X0.162500X0*%
%ADD33RoundRect,0.250000X0.250000X0.475000X-0.250000X0.475000X-0.250000X-0.475000X0.250000X-0.475000X0*%
%ADD34RoundRect,0.075000X-0.521491X0.415425X0.415425X-0.521491X0.521491X-0.415425X-0.415425X0.521491X0*%
%ADD35RoundRect,0.075000X-0.521491X-0.415425X-0.415425X-0.521491X0.521491X0.415425X0.415425X0.521491X0*%
%ADD36RoundRect,0.218750X0.218750X0.256250X-0.218750X0.256250X-0.218750X-0.256250X0.218750X-0.256250X0*%
%ADD37RoundRect,0.250000X0.650000X-0.325000X0.650000X0.325000X-0.650000X0.325000X-0.650000X-0.325000X0*%
%ADD38RoundRect,0.250000X1.550000X-0.650000X1.550000X0.650000X-1.550000X0.650000X-1.550000X-0.650000X0*%
%ADD39RoundRect,0.250000X-0.420000X-0.945000X0.420000X-0.945000X0.420000X0.945000X-0.420000X0.945000X0*%
%ADD40R,1.550000X0.600000*%
%ADD41R,2.600000X3.100000*%
%ADD42RoundRect,0.250000X0.400000X0.600000X-0.400000X0.600000X-0.400000X-0.600000X0.400000X-0.600000X0*%
%ADD43RoundRect,0.218750X-0.218750X-0.256250X0.218750X-0.256250X0.218750X0.256250X-0.218750X0.256250X0*%
%ADD44RoundRect,0.475000X2.075000X-0.475000X2.075000X0.475000X-2.075000X0.475000X-2.075000X-0.475000X0*%
%ADD45R,1.500000X2.600000*%
%ADD46O,1.500000X2.600000*%
G04 APERTURE END LIST*
D10*
%TO.C,R42*%
X83412500Y4500000D03*
X81587500Y4500000D03*
%TD*%
%TO.C,R41*%
X83412500Y12250000D03*
X81587500Y12250000D03*
%TD*%
%TO.C,R34*%
X83412500Y19500000D03*
X81587500Y19500000D03*
%TD*%
%TO.C,R33*%
X83412500Y27000000D03*
X81587500Y27000000D03*
%TD*%
D11*
%TO.C,R28*%
X23000000Y4087500D03*
X23000000Y5912500D03*
%TD*%
%TO.C,R27*%
X23000000Y9587500D03*
X23000000Y11412500D03*
%TD*%
%TO.C,R26*%
X23000000Y15087500D03*
X23000000Y16912500D03*
%TD*%
%TO.C,R25*%
X23000000Y20587500D03*
X23000000Y22412500D03*
%TD*%
%TO.C,R12*%
X23000000Y26087500D03*
X23000000Y27912500D03*
%TD*%
%TO.C,R11*%
X23000000Y31587500D03*
X23000000Y33412500D03*
%TD*%
%TO.C,R10*%
X23000000Y37087500D03*
X23000000Y38912500D03*
%TD*%
%TO.C,R9*%
X23000000Y42587500D03*
X23000000Y44412500D03*
%TD*%
D12*
%TO.C,R59*%
X87087500Y36000000D03*
X88912500Y36000000D03*
%TD*%
D13*
%TO.C,D8*%
X18000000Y54500000D03*
X18000000Y50500000D03*
%TD*%
D10*
%TO.C,R49*%
X75912500Y25000000D03*
X74087500Y25000000D03*
%TD*%
D11*
%TO.C,R17*%
X33500000Y20587500D03*
X33500000Y22412500D03*
%TD*%
D14*
%TO.C,R46*%
X69500000Y6912500D03*
X69500000Y5087500D03*
%TD*%
D15*
%TO.C,U5*%
X41362500Y59950000D03*
X41362500Y59000000D03*
X41362500Y58050000D03*
X43637500Y58050000D03*
X43637500Y59000000D03*
X43637500Y59950000D03*
%TD*%
D16*
%TO.C,Q13*%
X58050000Y60190000D03*
X59950000Y60190000D03*
X59000000Y62810000D03*
%TD*%
D17*
%TO.C,C11*%
X26000000Y63450000D03*
X26000000Y61550000D03*
%TD*%
%TO.C,C17*%
X24000000Y50950000D03*
X24000000Y49050000D03*
%TD*%
D18*
%TO.C,C4*%
X17000000Y26050000D03*
X17000000Y27950000D03*
%TD*%
D19*
%TO.C,LD6*%
X37937500Y16000000D03*
X36062500Y16000000D03*
%TD*%
D12*
%TO.C,R50*%
X52587500Y7500000D03*
X54412500Y7500000D03*
%TD*%
D19*
%TO.C,LD8*%
X37937500Y5000000D03*
X36062500Y5000000D03*
%TD*%
D10*
%TO.C,R36*%
X24912500Y73000000D03*
X23087500Y73000000D03*
%TD*%
%TO.C,R63*%
X59912500Y57000000D03*
X58087500Y57000000D03*
%TD*%
D12*
%TO.C,R86*%
X87087500Y40000000D03*
X88912500Y40000000D03*
%TD*%
D20*
%TO.C,H1*%
X1275000Y75500000D03*
X2219581Y77780419D03*
X2219581Y73219581D03*
X4500000Y78725000D03*
D21*
X4500000Y75500000D03*
D20*
X4500000Y72275000D03*
X6780419Y77780419D03*
X6780419Y73219581D03*
X7725000Y75500000D03*
%TD*%
D12*
%TO.C,R84*%
X46087500Y49500000D03*
X47912500Y49500000D03*
%TD*%
D22*
%TO.C,CN9*%
X94000000Y36150000D03*
D23*
X94000000Y38690000D03*
X94000000Y41230000D03*
X94000000Y43770000D03*
X94000000Y46310000D03*
X94000000Y48850000D03*
%TD*%
D24*
%TO.C,C14*%
X34500000Y70750000D03*
X34500000Y77250000D03*
%TD*%
D25*
%TO.C,FD1*%
X84500000Y70000000D03*
%TD*%
D19*
%TO.C,LD1*%
X37937500Y43500000D03*
X36062500Y43500000D03*
%TD*%
D11*
%TO.C,R6*%
X31000000Y31587500D03*
X31000000Y33412500D03*
%TD*%
D26*
%TO.C,D10*%
X17500000Y63000000D03*
X21500000Y63000000D03*
%TD*%
D27*
%TO.C,D4*%
X87000000Y4250000D03*
X87000000Y7750000D03*
%TD*%
D12*
%TO.C,R66*%
X87087500Y65500000D03*
X88912500Y65500000D03*
%TD*%
D11*
%TO.C,R32*%
X20000000Y4087500D03*
X20000000Y5912500D03*
%TD*%
D18*
%TO.C,C2*%
X17000000Y37050000D03*
X17000000Y38950000D03*
%TD*%
D28*
%TO.C,C22*%
X40550000Y69500000D03*
X42450000Y69500000D03*
%TD*%
D19*
%TO.C,LD4*%
X37937500Y27000000D03*
X36062500Y27000000D03*
%TD*%
D14*
%TO.C,R52*%
X55500000Y62412500D03*
X55500000Y60587500D03*
%TD*%
%TO.C,R48*%
X65500000Y6912500D03*
X65500000Y5087500D03*
%TD*%
D29*
%TO.C,CN3*%
X5500000Y55000000D03*
D30*
X5500000Y51190000D03*
%TD*%
D12*
%TO.C,R79*%
X46087500Y58000000D03*
X47912500Y58000000D03*
%TD*%
D27*
%TO.C,D2*%
X87000000Y19250000D03*
X87000000Y22750000D03*
%TD*%
D11*
%TO.C,R75*%
X79500000Y57087500D03*
X79500000Y58912500D03*
%TD*%
D17*
%TO.C,C26*%
X65500000Y30450000D03*
X65500000Y28550000D03*
%TD*%
D31*
%TO.C,LD11*%
X81562500Y15000000D03*
X83437500Y15000000D03*
%TD*%
D10*
%TO.C,R60*%
X75412500Y69500000D03*
X73587500Y69500000D03*
%TD*%
D32*
%TO.C,Q7*%
X25690000Y11450000D03*
X25690000Y9550000D03*
X28310000Y10500000D03*
%TD*%
D16*
%TO.C,Q14*%
X76050000Y62690000D03*
X77950000Y62690000D03*
X77000000Y65310000D03*
%TD*%
D11*
%TO.C,R15*%
X20000000Y31587500D03*
X20000000Y33412500D03*
%TD*%
D18*
%TO.C,C21*%
X50500000Y33550000D03*
X50500000Y35450000D03*
%TD*%
D22*
%TO.C,CN10*%
X94000000Y56670000D03*
D23*
X94000000Y59210000D03*
X94000000Y61750000D03*
X94000000Y64290000D03*
X94000000Y66830000D03*
%TD*%
D33*
%TO.C,C20*%
X57950000Y22500000D03*
X56050000Y22500000D03*
%TD*%
D12*
%TO.C,R72*%
X72087500Y64500000D03*
X73912500Y64500000D03*
%TD*%
D10*
%TO.C,R61*%
X88912500Y51000000D03*
X87087500Y51000000D03*
%TD*%
D19*
%TO.C,LD13*%
X75937500Y27500000D03*
X74062500Y27500000D03*
%TD*%
D11*
%TO.C,R23*%
X33500000Y4087500D03*
X33500000Y5912500D03*
%TD*%
D10*
%TO.C,R68*%
X88912500Y67500000D03*
X87087500Y67500000D03*
%TD*%
D32*
%TO.C,Q1*%
X25690000Y44450000D03*
X25690000Y42550000D03*
X28310000Y43500000D03*
%TD*%
D28*
%TO.C,C23*%
X40550000Y67000000D03*
X42450000Y67000000D03*
%TD*%
%TO.C,C19*%
X57800000Y41000000D03*
X59700000Y41000000D03*
%TD*%
D32*
%TO.C,Q2*%
X25690000Y38950000D03*
X25690000Y37050000D03*
X28310000Y38000000D03*
%TD*%
D11*
%TO.C,R20*%
X31000000Y15087500D03*
X31000000Y16912500D03*
%TD*%
D16*
%TO.C,Q10*%
X73050000Y14690000D03*
X74950000Y14690000D03*
X74000000Y17310000D03*
%TD*%
D33*
%TO.C,C28*%
X57450000Y38500000D03*
X55550000Y38500000D03*
%TD*%
D11*
%TO.C,R71*%
X28000000Y69587500D03*
X28000000Y71412500D03*
%TD*%
D20*
%TO.C,H4*%
X92275000Y75500000D03*
X93219581Y77780419D03*
X93219581Y73219581D03*
X95500000Y78725000D03*
D21*
X95500000Y75500000D03*
D20*
X95500000Y72275000D03*
X97780419Y77780419D03*
X97780419Y73219581D03*
X98725000Y75500000D03*
%TD*%
D34*
%TO.C,U3*%
X57001212Y35387876D03*
X56647658Y35034322D03*
X56294105Y34680769D03*
X55940551Y34327215D03*
X55586998Y33973662D03*
X55233445Y33620109D03*
X54879891Y33266555D03*
X54526338Y32913002D03*
X54172785Y32559449D03*
X53819231Y32205895D03*
X53465678Y31852342D03*
X53112124Y31498788D03*
D35*
X53112124Y29501212D03*
X53465678Y29147658D03*
X53819231Y28794105D03*
X54172785Y28440551D03*
X54526338Y28086998D03*
X54879891Y27733445D03*
X55233445Y27379891D03*
X55586998Y27026338D03*
X55940551Y26672785D03*
X56294105Y26319231D03*
X56647658Y25965678D03*
X57001212Y25612124D03*
D34*
X58998788Y25612124D03*
X59352342Y25965678D03*
X59705895Y26319231D03*
X60059449Y26672785D03*
X60413002Y27026338D03*
X60766555Y27379891D03*
X61120109Y27733445D03*
X61473662Y28086998D03*
X61827215Y28440551D03*
X62180769Y28794105D03*
X62534322Y29147658D03*
X62887876Y29501212D03*
D35*
X62887876Y31498788D03*
X62534322Y31852342D03*
X62180769Y32205895D03*
X61827215Y32559449D03*
X61473662Y32913002D03*
X61120109Y33266555D03*
X60766555Y33620109D03*
X60413002Y33973662D03*
X60059449Y34327215D03*
X59705895Y34680769D03*
X59352342Y35034322D03*
X58998788Y35387876D03*
%TD*%
D17*
%TO.C,C18*%
X51500000Y64450000D03*
X51500000Y62550000D03*
%TD*%
D13*
%TO.C,D5*%
X13500000Y54500000D03*
X13500000Y50500000D03*
%TD*%
D11*
%TO.C,R5*%
X33500000Y31587500D03*
X33500000Y33412500D03*
%TD*%
D18*
%TO.C,C7*%
X17000000Y9550000D03*
X17000000Y11450000D03*
%TD*%
D12*
%TO.C,R81*%
X41087500Y54000000D03*
X42912500Y54000000D03*
%TD*%
D11*
%TO.C,R29*%
X20000000Y20587500D03*
X20000000Y22412500D03*
%TD*%
D19*
%TO.C,LD7*%
X37937500Y10500000D03*
X36062500Y10500000D03*
%TD*%
D20*
%TO.C,H2*%
X1275000Y4500000D03*
X2219581Y6780419D03*
X2219581Y2219581D03*
X4500000Y7725000D03*
D21*
X4500000Y4500000D03*
D20*
X4500000Y1275000D03*
X6780419Y6780419D03*
X6780419Y2219581D03*
X7725000Y4500000D03*
%TD*%
D36*
%TO.C,L2*%
X56287500Y66000000D03*
X54712500Y66000000D03*
%TD*%
D18*
%TO.C,C5*%
X17000000Y20550000D03*
X17000000Y22450000D03*
%TD*%
D16*
%TO.C,Q12*%
X73050000Y4690000D03*
X74950000Y4690000D03*
X74000000Y7310000D03*
%TD*%
D37*
%TO.C,C9*%
X12500000Y67025000D03*
X12500000Y69975000D03*
%TD*%
D12*
%TO.C,R51*%
X52587500Y15000000D03*
X54412500Y15000000D03*
%TD*%
D11*
%TO.C,R21*%
X33500000Y9587500D03*
X33500000Y11412500D03*
%TD*%
D25*
%TO.C,FD2*%
X13000000Y3750000D03*
%TD*%
D11*
%TO.C,R4*%
X31000000Y37087500D03*
X31000000Y38912500D03*
%TD*%
D10*
%TO.C,R64*%
X59912500Y54500000D03*
X58087500Y54500000D03*
%TD*%
D15*
%TO.C,U7*%
X40862500Y50450000D03*
X40862500Y49500000D03*
X40862500Y48550000D03*
X43137500Y48550000D03*
X43137500Y49500000D03*
X43137500Y50450000D03*
%TD*%
D19*
%TO.C,LD3*%
X37937500Y32500000D03*
X36062500Y32500000D03*
%TD*%
D11*
%TO.C,R24*%
X31000000Y4087500D03*
X31000000Y5912500D03*
%TD*%
D38*
%TO.C,CN2*%
X94500000Y13880000D03*
D30*
X94500000Y17690000D03*
X94500000Y21500000D03*
X94500000Y25310000D03*
X94500000Y29120000D03*
%TD*%
D10*
%TO.C,R56*%
X79412500Y69500000D03*
X77587500Y69500000D03*
%TD*%
D11*
%TO.C,R74*%
X76000000Y57087500D03*
X76000000Y58912500D03*
%TD*%
D33*
%TO.C,C34*%
X48450000Y69500000D03*
X46550000Y69500000D03*
%TD*%
D17*
%TO.C,C35*%
X38000000Y59950000D03*
X38000000Y58050000D03*
%TD*%
D10*
%TO.C,R70*%
X54412500Y10000000D03*
X52587500Y10000000D03*
%TD*%
D18*
%TO.C,C1*%
X17000000Y42550000D03*
X17000000Y44450000D03*
%TD*%
D20*
%TO.C,H3*%
X92275000Y4500000D03*
X93219581Y6780419D03*
X93219581Y2219581D03*
X95500000Y7725000D03*
D21*
X95500000Y4500000D03*
D20*
X95500000Y1275000D03*
X97780419Y6780419D03*
X97780419Y2219581D03*
X98725000Y4500000D03*
%TD*%
D12*
%TO.C,R87*%
X87087500Y49000000D03*
X88912500Y49000000D03*
%TD*%
D10*
%TO.C,R67*%
X88912500Y62000000D03*
X87087500Y62000000D03*
%TD*%
D18*
%TO.C,C8*%
X17000000Y4050000D03*
X17000000Y5950000D03*
%TD*%
%TO.C,C6*%
X17000000Y15050000D03*
X17000000Y16950000D03*
%TD*%
D32*
%TO.C,Q5*%
X25690000Y22450000D03*
X25690000Y20550000D03*
X28310000Y21500000D03*
%TD*%
D12*
%TO.C,R80*%
X46087500Y60500000D03*
X47912500Y60500000D03*
%TD*%
D31*
%TO.C,LD10*%
X81562500Y22500000D03*
X83437500Y22500000D03*
%TD*%
D11*
%TO.C,R2*%
X31000000Y42587500D03*
X31000000Y44412500D03*
%TD*%
D39*
%TO.C,C33*%
X45460000Y63500000D03*
X48540000Y63500000D03*
%TD*%
D40*
%TO.C,U1*%
X24600000Y66595000D03*
X24600000Y67865000D03*
X24600000Y69135000D03*
X24600000Y70405000D03*
X19200000Y70405000D03*
X19200000Y69135000D03*
X19200000Y67865000D03*
X19200000Y66595000D03*
D41*
X21900000Y68500000D03*
%TD*%
D42*
%TO.C,D9*%
X46750000Y35500000D03*
X43250000Y35500000D03*
%TD*%
D29*
%TO.C,CN1*%
X5500000Y42870000D03*
D30*
X5500000Y39060000D03*
X5500000Y35250000D03*
X5500000Y31440000D03*
X5500000Y27630000D03*
X5500000Y23820000D03*
X5500000Y20010000D03*
X5500000Y16200000D03*
X5500000Y12390000D03*
%TD*%
D11*
%TO.C,R8*%
X31000000Y26087500D03*
X31000000Y27912500D03*
%TD*%
D14*
%TO.C,R38*%
X69500000Y16912500D03*
X69500000Y15087500D03*
%TD*%
D12*
%TO.C,R65*%
X87087500Y59500000D03*
X88912500Y59500000D03*
%TD*%
D10*
%TO.C,R57*%
X88912500Y34000000D03*
X87087500Y34000000D03*
%TD*%
D43*
%TO.C,L1*%
X11712500Y60000000D03*
X13287500Y60000000D03*
%TD*%
D12*
%TO.C,R62*%
X58087500Y65500000D03*
X59912500Y65500000D03*
%TD*%
D11*
%TO.C,R1*%
X33500000Y42587500D03*
X33500000Y44412500D03*
%TD*%
%TO.C,R18*%
X31000000Y20587500D03*
X31000000Y22412500D03*
%TD*%
D39*
%TO.C,C40*%
X45460000Y52500000D03*
X48540000Y52500000D03*
%TD*%
D31*
%TO.C,LD12*%
X81562500Y7500000D03*
X83437500Y7500000D03*
%TD*%
D19*
%TO.C,LD5*%
X37937500Y21500000D03*
X36062500Y21500000D03*
%TD*%
D14*
%TO.C,R37*%
X69500000Y21912500D03*
X69500000Y20087500D03*
%TD*%
D11*
%TO.C,R19*%
X33500000Y15087500D03*
X33500000Y16912500D03*
%TD*%
D44*
%TO.C,L4*%
X31000000Y61900000D03*
X31000000Y66100000D03*
%TD*%
D16*
%TO.C,Q9*%
X73050000Y19690000D03*
X74950000Y19690000D03*
X74000000Y22310000D03*
%TD*%
D12*
%TO.C,R82*%
X30587500Y55000000D03*
X32412500Y55000000D03*
%TD*%
D10*
%TO.C,R58*%
X88912500Y38000000D03*
X87087500Y38000000D03*
%TD*%
D27*
%TO.C,D1*%
X87000000Y26750000D03*
X87000000Y30250000D03*
%TD*%
D11*
%TO.C,R16*%
X20000000Y26087500D03*
X20000000Y27912500D03*
%TD*%
%TO.C,R13*%
X20000000Y42587500D03*
X20000000Y44412500D03*
%TD*%
D32*
%TO.C,Q3*%
X25690000Y33450000D03*
X25690000Y31550000D03*
X28310000Y32500000D03*
%TD*%
D12*
%TO.C,R83*%
X46087500Y47000000D03*
X47912500Y47000000D03*
%TD*%
D17*
%TO.C,C41*%
X51500000Y54450000D03*
X51500000Y52550000D03*
%TD*%
D25*
%TO.C,FD3*%
X17000000Y76000000D03*
%TD*%
D11*
%TO.C,R30*%
X20000000Y15087500D03*
X20000000Y16912500D03*
%TD*%
D10*
%TO.C,R69*%
X54412500Y12500000D03*
X52587500Y12500000D03*
%TD*%
D19*
%TO.C,LD2*%
X37937500Y38000000D03*
X36062500Y38000000D03*
%TD*%
D14*
%TO.C,R40*%
X65500000Y16912500D03*
X65500000Y15087500D03*
%TD*%
D37*
%TO.C,C10*%
X15500000Y67025000D03*
X15500000Y69975000D03*
%TD*%
D14*
%TO.C,R45*%
X69500000Y11912500D03*
X69500000Y10087500D03*
%TD*%
D22*
%TO.C,CN8*%
X49412500Y15810000D03*
D23*
X49412500Y13270000D03*
X49412500Y10730000D03*
X49412500Y8190000D03*
%TD*%
D17*
%TO.C,C38*%
X37000000Y50450000D03*
X37000000Y48550000D03*
%TD*%
D18*
%TO.C,C24*%
X52000000Y39550000D03*
X52000000Y41450000D03*
%TD*%
D11*
%TO.C,R7*%
X33500000Y26087500D03*
X33500000Y27912500D03*
%TD*%
D12*
%TO.C,R73*%
X87087500Y56500000D03*
X88912500Y56500000D03*
%TD*%
D33*
%TO.C,C16*%
X13450000Y62500000D03*
X11550000Y62500000D03*
%TD*%
D17*
%TO.C,C31*%
X32000000Y50950000D03*
X32000000Y49050000D03*
%TD*%
D14*
%TO.C,R85*%
X44000000Y41412500D03*
X44000000Y39587500D03*
%TD*%
D11*
%TO.C,R22*%
X31000000Y9587500D03*
X31000000Y11412500D03*
%TD*%
D12*
%TO.C,R35*%
X45087500Y32500000D03*
X46912500Y32500000D03*
%TD*%
%TO.C,R77*%
X41087500Y63500000D03*
X42912500Y63500000D03*
%TD*%
D24*
%TO.C,C13*%
X5000000Y61250000D03*
X5000000Y67750000D03*
%TD*%
D32*
%TO.C,Q4*%
X25690000Y27950000D03*
X25690000Y26050000D03*
X28310000Y27000000D03*
%TD*%
D11*
%TO.C,R14*%
X20000000Y37087500D03*
X20000000Y38912500D03*
%TD*%
D27*
%TO.C,D3*%
X87000000Y11750000D03*
X87000000Y15250000D03*
%TD*%
D11*
%TO.C,R53*%
X63500000Y38837500D03*
X63500000Y40662500D03*
%TD*%
D16*
%TO.C,Q11*%
X73050000Y9690000D03*
X74950000Y9690000D03*
X74000000Y12310000D03*
%TD*%
D14*
%TO.C,R39*%
X65500000Y21912500D03*
X65500000Y20087500D03*
%TD*%
D18*
%TO.C,C3*%
X17000000Y31550000D03*
X17000000Y33450000D03*
%TD*%
D32*
%TO.C,Q6*%
X25690000Y16950000D03*
X25690000Y15050000D03*
X28310000Y16000000D03*
%TD*%
D11*
%TO.C,R31*%
X20000000Y9587500D03*
X20000000Y11412500D03*
%TD*%
%TO.C,R54*%
X55500000Y54587500D03*
X55500000Y56412500D03*
%TD*%
%TO.C,R3*%
X33500000Y37087500D03*
X33500000Y38912500D03*
%TD*%
D14*
%TO.C,R47*%
X65500000Y11912500D03*
X65500000Y10087500D03*
%TD*%
D32*
%TO.C,Q8*%
X25690000Y5950000D03*
X25690000Y4050000D03*
X28310000Y5000000D03*
%TD*%
D31*
%TO.C,LD9*%
X81562500Y30000000D03*
X83437500Y30000000D03*
%TD*%
D14*
%TO.C,R55*%
X47500000Y41412500D03*
X47500000Y39587500D03*
%TD*%
D15*
%TO.C,U2*%
X26862500Y50950000D03*
X26862500Y50000000D03*
X26862500Y49050000D03*
X29137500Y49050000D03*
X29137500Y50950000D03*
%TD*%
D25*
%TO.C,DS1*%
X87499100Y44356800D03*
X87499100Y75357500D03*
X12500520Y44356800D03*
X12500000Y75357500D03*
D45*
X82000000Y75357500D03*
D46*
X79460000Y75357500D03*
X76920000Y75357500D03*
X74380000Y75357500D03*
X71840000Y75357500D03*
X69300000Y75357500D03*
X66760000Y75357500D03*
X64220000Y75357500D03*
X61680000Y75357500D03*
X59140000Y75357500D03*
X56600000Y75357500D03*
X54060000Y75357500D03*
X51520000Y75357500D03*
X48980000Y75357500D03*
X46440000Y75357500D03*
X43900000Y75357500D03*
%TD*%
M02*
