M48
; DRILL file KiCad 10.0.1 date 2026-06-17T11:13:25
; FORMAT={-:-/ absolute / metric / decimal}
; #@! TF.CreationDate,2026-06-17T11:13:26-03:00
; #@! TF.GenerationSoftware,Kicad,Pcbnew,10.0.1
; #@! TF.FileFunction,Plated,1,2,PTH
FMAT,2
METRIC
; #@! TA.AperFunction,Plated,PTH,ViaDrill
T1C0.300
; #@! TA.AperFunction,Plated,PTH,ComponentDrill
T2C0.300
; #@! TA.AperFunction,Plated,PTH,ComponentDrill
T3C0.600
; #@! TA.AperFunction,Plated,PTH,ComponentDrill
T4C1.000
; #@! TA.AperFunction,Plated,PTH,ComponentDrill
T5C1.200
; #@! TA.AperFunction,Plated,PTH,ComponentDrill
T6C4.300
%
G90
G05
T1
X2.5Y69.75
X2.5Y67.75
X2.5Y65.0
X7.75Y69.75
X7.75Y67.75
X7.75Y65.0
X10.0Y62.5
X10.5Y64.5
X11.0Y71.5
X11.0Y56.25
X11.0Y54.75
X11.0Y53.25
X12.5Y71.5
X12.5Y68.5
X14.0Y71.5
X15.5Y71.5
X15.5Y68.5
X17.5Y70.75
X17.5Y69.25
X18.5Y44.5
X18.5Y38.9
X18.5Y33.4
X18.5Y27.9
X18.5Y22.4
X18.5Y16.9
X18.5Y11.4
X18.5Y5.9
X20.5Y64.75
X20.5Y61.25
X21.4Y38.9
X21.4Y33.4
X21.4Y11.4
X21.5Y44.5
X21.5Y27.9
X21.5Y22.4
X21.5Y16.9
X21.5Y5.9
X21.75Y74.75
X21.75Y73.0
X22.5Y64.75
X22.5Y61.25
X23.5Y74.75
X24.0Y47.75
X25.7Y41.3
X25.7Y35.8
X25.7Y30.3
X25.7Y24.9
X25.7Y19.0
X25.7Y13.8
X25.7Y8.3
X25.7Y2.8
X28.25Y50.0
X31.5Y78.75
X31.5Y76.25
X33.75Y49.0
X35.25Y48.5
X37.25Y78.75
X37.25Y76.25
X38.0Y56.9
X39.5Y49.5
X39.75Y59.0
X43.25Y33.75
X43.75Y69.5
X43.75Y67.0
X46.5Y68.0
X47.0Y63.5
X47.0Y52.5
X48.5Y35.5
X49.25Y60.5
X49.25Y49.5
X51.0Y37.25
X51.5Y61.25
X51.5Y51.25
X51.8Y19.5
X52.0Y43.0
X52.9Y20.7
X52.9Y18.4
X54.25Y37.25
X54.3Y20.7
X54.3Y18.4
X55.55Y37.0
X55.8Y19.5
X56.0Y21.0
X58.087Y53.162
X59.7Y42.4
X60.0Y58.75
X60.5Y30.5
X63.5Y42.4
X64.0Y33.0
X64.0Y5.0
X65.5Y18.75
X65.5Y13.75
X65.5Y8.75
X67.0Y29.0
X72.25Y69.5
X76.5Y50.25
X76.5Y19.25
X76.5Y14.25
X76.5Y9.0
X76.5Y5.75
X77.5Y21.0
X77.5Y15.75
X77.5Y10.5
X77.5Y4.5
X77.5Y1.5
X77.75Y59.0
X78.0Y61.3
X78.0Y46.25
X78.75Y19.25
X78.75Y14.25
X78.75Y9.0
X78.75Y5.75
X78.8Y51.5
X78.8Y49.1
X78.8Y45.0
X79.75Y53.5
X80.6Y54.9
X80.6Y51.5
X80.6Y49.1
X80.6Y45.0
X82.2Y54.9
X82.2Y51.5
X82.2Y49.1
X82.2Y45.0
X83.25Y53.5
X83.25Y50.25
X84.0Y46.25
X90.0Y38.0
X90.25Y51.0
X91.0Y67.5
X91.0Y62.9
T2
X21.3Y70.3
X21.3Y69.2
X21.3Y67.9
X21.3Y66.7
X22.5Y70.3
X22.5Y69.2
X22.5Y67.9
X22.5Y66.7
T3
X1.275Y75.5
X1.275Y4.5
X2.22Y77.78
X2.22Y73.22
X2.22Y6.78
X2.22Y2.22
X4.5Y78.725
X4.5Y72.275
X4.5Y7.725
X4.5Y1.275
X6.78Y77.78
X6.78Y73.22
X6.78Y6.78
X6.78Y2.22
X7.725Y75.5
X7.725Y4.5
X92.275Y75.5
X92.275Y4.5
X93.22Y77.78
X93.22Y73.22
X93.22Y6.78
X93.22Y2.22
X95.5Y78.725
X95.5Y72.275
X95.5Y7.725
X95.5Y1.275
X97.78Y77.78
X97.78Y73.22
X97.78Y6.78
X97.78Y2.22
X98.725Y75.5
X98.725Y4.5
T4
X49.412Y15.81
X49.412Y13.27
X49.412Y10.73
X49.412Y8.19
X94.0Y66.83
X94.0Y64.29
X94.0Y61.75
X94.0Y59.21
X94.0Y56.67
X94.0Y48.85
X94.0Y46.31
X94.0Y43.77
X94.0Y41.23
X94.0Y38.69
X94.0Y36.15
T5
X5.5Y55.0
X5.5Y51.19
X5.5Y42.87
X5.5Y39.06
X5.5Y35.25
X5.5Y31.44
X5.5Y27.63
X5.5Y23.82
X5.5Y20.01
X5.5Y16.2
X5.5Y12.39
X43.9Y75.358
X46.44Y75.358
X48.98Y75.358
X51.52Y75.358
X54.06Y75.358
X56.6Y75.358
X59.14Y75.358
X61.68Y75.358
X64.22Y75.358
X66.76Y75.358
X69.3Y75.358
X71.84Y75.358
X74.38Y75.358
X76.92Y75.358
X79.46Y75.358
X82.0Y75.358
X94.5Y29.12
X94.5Y25.31
X94.5Y21.5
X94.5Y17.69
X94.5Y13.88
T6
X4.5Y75.5
X4.5Y4.5
X95.5Y75.5
X95.5Y4.5
M30
